<svg width="1208" height="154" xmlns="http://www.w3.org/2000/svg" xmlns:xlink="http://www.w3.org/1999/xlink" overflow="hidden"><defs><clipPath id="clip0"><rect x="36" y="282" width="1208" height="154"/></clipPath></defs><g clip-path="url(#clip0)" transform="translate(-36 -282)"><rect x="141.5" y="333.5" width="116" height="71" stroke="#000000" stroke-width="0.666667" stroke-linejoin="round" stroke-miterlimit="10" fill="#FFFFFF"/><text font-family="Calibri,Calibri_MSFontService,sans-serif" font-weight="400" font-size="24" transform="translate(167.844 361)">Frame <tspan font-size="24" x="-13.08" y="31">sampling</tspan></text><rect x="281.5" y="344.5" width="106" height="49" stroke="#000000" stroke-width="0.666667" stroke-linejoin="round" stroke-miterlimit="10" fill="#FFFFFF"/><text font-family="Calibri,Calibri_MSFontService,sans-serif" font-weight="400" font-size="24" transform="translate(295 377)">Padding</text><rect x="405.5" y="285.5" width="223" height="150" stroke="#000000" stroke-width="0.666667" stroke-linejoin="round" stroke-miterlimit="10" stroke-dasharray="5.33333 2" fill="none"/><text font-family="Calibri,Calibri_MSFontService,sans-serif" font-weight="400" font-size="24" transform="translate(494.036 313)">STFT</text><rect x="422.5" y="334.5" width="101" height="70" stroke="#000000" stroke-width="0.666667" stroke-linejoin="round" stroke-miterlimit="10" fill="#FFFFFF"/><text font-family="Calibri,Calibri_MSFontService,sans-serif" font-weight="400" font-size="24" transform="translate(431.436 362)">Window <tspan font-size="24" x="0.119995" y="31">function</tspan></text><rect x="551.5" y="334.5" width="66" height="70" stroke="#000000" stroke-width="0.666667" stroke-linejoin="round" stroke-miterlimit="10" fill="#FFFFFF"/><text font-family="Calibri,Calibri_MSFontService,sans-serif" font-weight="400" font-size="24" transform="translate(565.544 377)">DFT</text><path d="M523.5 369.167 545.284 369.167 545.284 369.833 523.5 369.833ZM543.95 365.5 551.95 369.5 543.95 373.5Z" fill="#4472C4"/><path d="M257.502 369.167 275.27 369.287 275.266 369.954 257.498 369.833ZM273.962 365.612 281.935 369.666 273.908 373.611Z" fill="#4472C4"/><path d="M387.5 369.167 415.515 369.167 415.515 369.833 387.5 369.833ZM414.182 365.5 422.182 369.5 414.182 373.5Z" fill="#4472C4"/><path d="M97.5001 369.167 134.167 369.167 134.167 369.834 97.5 369.833ZM132.834 365.5 140.834 369.501 132.834 373.5Z" fill="#4472C4"/><path d="M0.00175028-0.333329 24.8657-0.20277 24.8622 0.463887-0.00175028 0.333329ZM23.5516-3.87639 31.5305 0.165564 23.5096 4.1235Z" fill="#4472C4" transform="matrix(1 0 0 -1 617.5 369.666)"/><rect x="649.5" y="333.5" width="128" height="71" stroke="#000000" stroke-width="0.666667" stroke-linejoin="round" stroke-miterlimit="10" fill="#FFFFFF"/><text font-family="Calibri,Calibri_MSFontService,sans-serif" font-weight="400" font-size="24" transform="translate(678.495 361)">Power:<tspan font-family="Cambria Math,Cambria Math_MSFontService,sans-serif" font-size="24" x="-18.8734" y="31">|</tspan><tspan font-family="Cambria Math,Cambria Math_MSFontService,sans-serif" font-size="24" x="-11.2067" y="31">ğ‘‹</tspan><tspan font-family="Cambria Math,Cambria Math_MSFontService,sans-serif" font-size="24" x="4.88" y="31">(</tspan><tspan font-family="Cambria Math,Cambria Math_MSFontService,sans-serif" font-size="24" x="14.88" y="31">ğ‘˜</tspan><tspan font-family="Cambria Math,Cambria Math_MSFontService,sans-serif" font-size="24" x="28.7466" y="31">,</tspan><tspan font-family="Cambria Math,Cambria Math_MSFontService,sans-serif" font-size="24" x="37.7466" y="31">ğ‘š</tspan><tspan font-family="Cambria Math,Cambria Math_MSFontService,sans-serif" font-size="24" x="58.3267" y="31">)</tspan></text><path d="M4.69922 5.03906 2.89453 5.03906 2.89453-16.7695 4.69922-16.7695Z" transform="translate(746.822 392)"/><text font-family="Cambria Math,Cambria Math_MSFontService,sans-serif" font-weight="400" font-size="18" transform="translate(754.415 384)">2</text><rect x="883.5" y="333.5" width="125" height="71" stroke="#000000" stroke-width="0.666667" stroke-linejoin="round" stroke-miterlimit="10" fill="#FFFFFF"/><text font-family="Calibri,Calibri_MSFontService,sans-serif" font-weight="400" font-size="24" transform="translate(926.575 361)">Mel <tspan font-size="24" x="-29.8733" y="31">Filterbank</tspan></text><rect x="1037.5" y="333.5" width="87" height="71" stroke="#000000" stroke-width="0.666667" stroke-linejoin="round" stroke-miterlimit="10" fill="#FFFFFF"/><text font-family="Calibri,Calibri_MSFontService,sans-serif" font-weight="400" font-size="24" transform="translate(1047.98 361)">log/dB <tspan font-size="24" x="8.52661" y="31">scal</tspan><tspan font-size="24" x="44.8267" y="31">e</tspan></text><path d="M1008.5 369.167 1030.28 369.167 1030.28 369.833 1008.5 369.833ZM1028.95 365.5 1036.95 369.5 1028.95 373.5Z" fill="#4472C4"/><path d="M777.5 369.167 877.042 369.167 877.042 369.833 777.5 369.833ZM875.708 365.5 883.708 369.5 875.708 373.5Z" fill="#4472C4"/><text font-family="Calibri,Calibri_MSFontService,sans-serif" font-weight="400" font-size="17" transform="translate(807.467 362)">Power <tspan font-size="17" x="-22.6334" y="21">Spectrogram</tspan></text><path d="M1124.5 369.167 1152.05 369.167 1152.05 369.833 1124.5 369.833ZM1150.71 365.5 1158.71 369.5 1150.71 373.5Z" fill="#4472C4"/><text font-family="Calibri,Calibri_MSFontService,sans-serif" font-weight="400" font-size="17" transform="translate(1157.32 365)">Log<tspan font-size="17" x="24.6666" y="0">-</tspan><tspan font-size="17" x="30" y="0">Mel </tspan><tspan font-size="17" x="-16.1866" y="21">Spectrogram</tspan><tspan font-size="17" x="-1099.94" y="-3">Waveform</tspan></text></g></svg>