<svg width="974" height="154" xmlns="http://www.w3.org/2000/svg" xmlns:xlink="http://www.w3.org/1999/xlink" overflow="hidden"><defs><clipPath id="clip0"><rect x="146" y="275" width="974" height="154"/></clipPath></defs><g clip-path="url(#clip0)" transform="translate(-146 -275)"><rect x="257.5" y="326.5" width="166" height="70" stroke="#000000" stroke-width="0.666667" stroke-linejoin="round" stroke-miterlimit="10" fill="#FFFFFF"/><text font-family="Calibri,Calibri_MSFontService,sans-serif" font-weight="400" font-size="24" transform="translate(309.278 354)">Frame <tspan font-size="24" x="-13.08" y="31">sampling</tspan></text><rect x="505.5" y="336.5" width="109" height="50" stroke="#000000" stroke-width="0.666667" stroke-linejoin="round" stroke-miterlimit="10" fill="#FFFFFF"/><text font-family="Calibri,Calibri_MSFontService,sans-serif" font-weight="400" font-size="24" transform="translate(520.499 369)">Padding</text><rect x="688.5" y="277.5" width="318" height="151" stroke="#000000" stroke-width="0.666667" stroke-linejoin="round" stroke-miterlimit="10" stroke-dasharray="5.33333 2" fill="none"/><text font-family="Calibri,Calibri_MSFontService,sans-serif" font-weight="400" font-size="24" transform="translate(824.312 305)">STFT</text><rect x="712.5" y="326.5" width="144" height="70" stroke="#000000" stroke-width="0.666667" stroke-linejoin="round" stroke-miterlimit="10" fill="#FFFFFF"/><text font-family="Calibri,Calibri_MSFontService,sans-serif" font-weight="400" font-size="24" transform="translate(742.911 354)">Window <tspan font-size="24" x="0.119995" y="31">function</tspan></text><rect x="897.5" y="326.5" width="93" height="70" stroke="#000000" stroke-width="0.666667" stroke-linejoin="round" stroke-miterlimit="10" fill="#FFFFFF"/><text font-family="Calibri,Calibri_MSFontService,sans-serif" font-weight="400" font-size="24" transform="translate(924.59 370)">DFT</text><path d="M856.5 361.167 890.378 361.167 890.378 361.833 856.5 361.833ZM889.045 357.5 897.045 361.5 889.045 365.5Z" fill="#4472C4"/><path d="M2.13286e-06-0.333333 75.3726-0.332851 75.3726 0.333816-2.13286e-06 0.333333ZM74.0393-3.99953 82.0393 0.000524934 74.0392 4.00047Z" fill="#4472C4" transform="matrix(1 0 0 -1 423.5 361.501)"/><path d="M614.501 361.167 705.184 361.321 705.183 361.988 614.5 361.833ZM703.857 357.652 711.851 361.666 703.844 365.652Z" fill="#4472C4"/><path d="M196.5 361.167 251.589 361.167 251.589 361.834 196.5 361.833ZM250.256 357.501 258.256 361.501 250.256 365.501Z" fill="#4472C4"/><path d="M990.5 361.167 1060.32 361.168 1060.32 361.834 990.5 361.833ZM1058.98 357.501 1066.98 361.501 1058.98 365.501Z" fill="#4472C4"/><text font-family="Calibri,Calibri_MSFontService,sans-serif" font-weight="400" font-size="17" transform="translate(166.913 353)">Waveform<tspan font-size="17" x="850.557" y="0">Spectrogram</tspan></text></g></svg>